<svg width="150" height="150" viewBox="0 0 150 150" fill="none" xmlns="http://www.w3.org/2000/svg">
<rect x="24" y="16" width="102" height="102" rx="20" fill="white"/>
<path fill-rule="evenodd" clip-rule="evenodd" d="M108.878 77.3179C107.178 81.2743 104.706 84.8577 101.603 87.8614C98.3773 90.8997 94.7835 93.3124 90.7327 95.0097C86.4897 96.7179 81.9543 97.5978 77.3752 97.6014C72.8258 97.6065 68.3196 96.726 64.1119 95.0098C59.9661 93.3124 38.45 101.85 38.45 101.85C38.45 101.85 47.6238 81.3387 45.872 77.3179C44.1075 73.2542 43.1988 68.8756 43.2016 64.4509C43.2077 59.9981 44.1158 55.592 45.872 51.4942C47.6238 47.5627 50.1095 44.0779 53.242 40.9504C56.3748 37.9122 59.9657 35.5891 64.1119 33.8913C68.3197 32.1755 72.8259 31.2952 77.3752 31.3004C86.4107 31.2585 95.1049 34.7217 101.602 40.9509C104.666 43.9871 107.133 47.5626 108.878 51.4946C110.635 55.592 111.544 59.998 111.55 64.4508C111.553 68.8756 110.644 73.2544 108.878 77.3179V77.3179ZM99.3809 57.4619L100.173 57.0156L99.7164 56.2415L96.0536 50.0503L95.5957 49.2765L94.8035 49.7233L82.6403 56.5777V41.9751H73.4852V56.5774L61.3234 49.7233L60.5308 49.2765L60.0729 50.0503L56.4109 56.2415L55.9534 57.0156L56.7456 57.4619L68.9089 64.3164L56.7456 71.1706L55.9534 71.6181L56.4109 72.3921L60.0729 78.5832L60.5308 79.3567L61.3234 78.9099L73.4852 72.0562V86.6577H82.6403V72.0555L94.8035 78.9099L95.5957 79.3567L96.0536 78.5832L99.7164 72.3921L100.173 71.6181L99.3809 71.1706L87.2193 64.3164L99.3809 57.4619Z" fill="#25D266"/>
</svg>
